# xmcd
#
# Track frame offsets: 
#        150
#        22472
#        44814
#        60756
#        80953
#        98747
#        120104
#        134771
#        155743
#        173113
#        195495
#        213767
#        234430
#        255948
#        278762
#        302825
#        320629
#
# Disc length: 4505 seconds
#
# Revision: 0
# Processed by: cddbd v1.4PL0 Copyright (c) Steve Scherf et al.
# Submitted via: ExactAudioCopy v0.90b4
#
DISCID=ee119711
DTITLE=满文军 - 我需要你
DYEAR=2003
DGENRE=Pop
TTITLE0=我需要你
TTITLE1=故事
TTITLE2=美丽的你
TTITLE3=这一颗心
TTITLE4=爱过你
TTITLE5=你不要的回忆
TTITLE6=最可靠的朋友/周传雄
TTITLE7=今生今世
TTITLE8=桃花深处
TTITLE9=没有你的城市
TTITLE10=希望/韩红
TTITLE11=爱无界
TTITLE12=闻笛
TTITLE13=让你的天空最美
TTITLE14=懂你
TTITLE15=望乡
TTITLE16=只要你肯对我说/朱桦
EXTD=
EXTT0=
EXTT1=
EXTT2=
EXTT3=
EXTT4=
EXTT5=
EXTT6=
EXTT7=
EXTT8=
EXTT9=
EXTT10=
EXTT11=
EXTT12=
EXTT13=
EXTT14=
EXTT15=
EXTT16=
PLAYORDER=
